<svg xmlns="http://www.w3.org/2000/svg" viewBox="0 0 122.01 125"><path d="M1.69,62A1.7,1.7,0,0,1,0,60.29V14.71A1.7,1.7,0,0,1,1.69,13H78.31A1.7,1.7,0,0,1,80,14.71V60.29A1.7,1.7,0,0,1,78.31,62ZM5,57H35.88V18H5Z" fill="#80e8e0"/><path d="M30,46.5c0,1.1-1.63,4.5-10.77,4.5S9,47.16,9,46.28s1-1.54,4.68-1.54S16.94,42,16.94,42h5.11a2,2,0,0,0,2.28,2.41C27.06,44.41,30,45.4,30,46.5Z" fill="#ffb402"/><path d="M21.5,41a.5.5,0,0,1-.5.5c-6.17,0-6.5-7.9-6.5-8a.5.5,0,0,1,1,0c0,.29.3,7,5.5,7A.5.5,0,0,1,21.5,41ZM85,91.2c0,8.83-13.72,29.48-14.31,30.35A1,1,0,0,1,69,120.44c.14-.21,14-21,14-29.24,0-4.71-1.31-6.73-2.29-7.59-.79,8.84-6.52,9.33-6.77,9.34a1,1,0,0,1-.9-.45c-.19-.29-2.61-4-4.92-8.2a12.79,12.79,0,0,1-1.9,3.24c-1.63,1.87-4.15,3.47-6.09,2.84-.87-.28-2-1.11-2.15-3.41-.37-4.15-4.88-18-4.92-18.17a1,1,0,1,1,1.9-.62c.19.58,4.63,14.23,5,18.61,0,.55.21,1.5.78,1.68.86.28,2.64-.73,4-2.25A14.28,14.28,0,0,0,66.88,82c-1.56-3-2.84-6.05-3-8-.2-2.51.89-3.61,1.55-4a3.19,3.19,0,0,1,3.26-.06,3.85,3.85,0,0,1,2,3.47,31.06,31.06,0,0,1-1.62,8.44c1.8,3.42,4,6.94,5.29,9,1.26-.39,4.32-2,4.45-8.85a1,1,0,0,1,1.13-1C80.14,81,85,81.81,85,91.2ZM68.67,73.38a1.83,1.83,0,0,0-.92-1.71,1.38,1.38,0,0,0-.66-.17,1,1,0,0,0-.56.16,2.37,2.37,0,0,0-.65,2.21,18.26,18.26,0,0,0,1.85,5.34A25,25,0,0,0,68.67,73.38ZM59,51a1,1,0,0,0-1-1H41a1,1,0,0,0,0,2H58A1,1,0,0,0,59,51ZM41.66,31.45a1,1,0,0,1,.45-1.34c1.82-.91,3.62-1.89,5.37-2.92a4.38,4.38,0,0,1-.19-2A3.3,3.3,0,0,1,48.54,23a2.33,2.33,0,0,1,2.88.07,2.67,2.67,0,0,1,.36,3.31,4.65,4.65,0,0,1-1.58,1.53,3.36,3.36,0,0,0,1,.68,6.17,6.17,0,0,0,4.25-.09A24.91,24.91,0,0,0,58.2,27.3c.62-.29,1.23-.58,1.86-.84a20.69,20.69,0,0,1,11-1.33,1,1,0,0,1-.3,2,18.7,18.7,0,0,0-10,1.2c-.6.25-1.18.52-1.77.8a26.8,26.8,0,0,1-3,1.25,8,8,0,0,1-5.67,0,5.33,5.33,0,0,1-2-1.46c-1.78,1-3.61,2-5.46,3a1,1,0,0,1-1.34-.45Zm7.6-5.35a2.57,2.57,0,0,0,.79-.77.79.79,0,0,0,0-.79.21.21,0,0,0-.13,0,.46.46,0,0,0-.26.09,1.34,1.34,0,0,0-.44.89A2.29,2.29,0,0,0,49.27,26.09ZM19.87,37.45a1.52,1.52,0,0,0,.38,0,1.3,1.3,0,0,0,.94-.37.5.5,0,0,0-.69-.73V32a.5.5,0,0,0-1,0v5A.5.5,0,0,0,19.87,37.45ZM41,46H72a1,1,0,0,0,0-2H41a1,1,0,0,0,0,2Zm78.6,3.64c-3.57-15.92-11-28.32-18.91-33.55-2.24-1.48-6.24-3.94-12.54-7.73l-.3-.18L80.33,3.65C77.68,2.06,76,1,74.86.33A2.18,2.18,0,0,0,71.52,2c-.24,5.25,1.22,11.43,4,13.92,1.68,1.48,5.82,4.78,11.46,9.18A11.58,11.58,0,0,1,91.49,35.2a49.13,49.13,0,0,0-.11,5.41c.09,2.85.35,5.88.75,8.95.17,1.32.35,2.55.53,3.67.06.39.12.74.18,1l.07.38a1,1,0,1,0,2-.37l-.06-.36c-.05-.29-.11-.63-.17-1-.18-1.1-.36-2.31-.53-3.6-.39-3-.65-6-.74-8.75a47.19,47.19,0,0,1,.1-5.19,13.58,13.58,0,0,0-5.25-11.81c-5.6-4.36-9.73-7.65-11.36-9.09-2.24-2-3.57-7.63-3.35-12.33A.18.18,0,0,1,73.8,2c1.14.71,2.84,1.74,5.5,3.34l7.52,4.52.3.18c6.27,3.78,10.26,6.22,12.46,7.68,7.43,4.92,14.6,16.87,18.06,32.32,4.38,19.56,2.83,43.16-6,69.61a1,1,0,1,0,1.9.63C122.49,93.53,124.07,69.56,119.6,49.64ZM100.37,67l-.92-.37-2.43-1-7.38-2.92-10-4c-4.44-1.74-9.76-.63-12.41,2.95a1,1,0,0,0,.24,1.42l21.2,14.38c0,.24-.06.5-.09.79a32.56,32.56,0,0,0,.7,11.16c1.36,5.33,4.25,9.35,9,11.42a1,1,0,1,0,.8-1.83c-4.14-1.8-6.66-5.3-7.88-10.08a30.65,30.65,0,0,1-.65-10.47c0-.36.08-.69.11-1s0-.27,0-.33a1,1,0,0,0-.42-1L69.5,62.15a9.07,9.07,0,0,1,9.38-1.48l10,3.95,7.4,2.93,2.43,1,.92.36a1,1,0,1,0,.74-1.86Z" style="fill:#565a5c"/><path d="M28.37,30.48c0,1.35-1.77,4.69-2.5,4.69s-.94-.42-.63-1.46c0,0-1.8-.41-1.87-3.09-3,3.57-10.85,2.82-10.85,2.82l1.25-1.2S12,32.34,12,31s1.57-1,1.57-1c0-2.84,2.3-6.55,5.74-6.55S24.5,26,24.5,27.35a6,6,0,0,1,0,.67,2.67,2.67,0,0,1,1.41-.35A2.75,2.75,0,0,1,28.37,30.48Z" fill="#00d1c1"/></svg>
