<svg xmlns="http://www.w3.org/2000/svg" viewBox="0 0 136 125"><path d="M54.84,86H36V47.25L60.5,24,85,47.25V86H54.84Z" fill="#00d1c1"/><path d="M30,27.14a22.2,22.2,0,0,1-3.9,5.5,11,11,0,0,1,3,2.5,5.61,5.61,0,0,1,1.14,4.21c-.48,2.78-3.16,3.68-5.36,4A85.49,85.49,0,0,1,12.44,44c-3.08-.06-7,.16-9.64-2.16A8.69,8.69,0,0,1,0,34.68c.27-2.78,2.26-5.25,4.43-5,.32-4.09-2.37-7.85-2-11.92.24-2.46,1.71-4.64,3.57-5.29a4.44,4.44,0,0,1,5.15,2.24,33.89,33.89,0,0,1,3.65-9.23c.67-1.15,1.53-2.32,2.64-2.43,1.35-.13,2.5,1.44,2.82,3.13a15.29,15.29,0,0,1-.24,5.17A12.79,12.79,0,0,0,20,16.47,14.14,14.14,0,0,1,25.85,16a6.29,6.29,0,0,1,4.69,4A9.87,9.87,0,0,1,30,27.14Zm86.1,63.51a22.21,22.21,0,0,0,3.9-5.5,9.87,9.87,0,0,0,.53-7.17,6.29,6.29,0,0,0-4.69-4,14.14,14.14,0,0,0-5.82.49,12.79,12.79,0,0,1,.06-5.16,15.29,15.29,0,0,0,.24-5.17c-.32-1.69-1.47-3.26-2.82-3.13-1.11.11-2,1.28-2.64,2.43a33.89,33.89,0,0,0-3.65,9.23,4.44,4.44,0,0,0-5.15-2.24c-1.86.65-3.33,2.83-3.57,5.29-.4,4.08,2.3,7.84,2,11.92-2.17-.2-4.16,2.27-4.43,5a8.69,8.69,0,0,0,2.77,7.15c2.64,2.32,6.56,2.1,9.64,2.16a85.58,85.58,0,0,0,12.47-.66c2.2-.28,4.88-1.18,5.36-4a5.61,5.61,0,0,0-1.14-4.21A11,11,0,0,0,116.11,90.64Z" fill="#ffb402"/><path d="M14,64V22a1,1,0,0,1,2,0V64a1,1,0,0,1-2,0ZM132,46V84a1,1,0,0,1-2,0V47.25H97.13V61a1,1,0,0,1-2,0V47.25h-.22A9.07,9.07,0,0,1,86,38.05V31a1,1,0,0,1,1-1h9.13a1,1,0,0,1,1,1V45.25h31.68L106.57,24H61a1,1,0,0,1,0-2h46a1,1,0,0,1,.69.28l24,23A1,1,0,0,1,132,46ZM95.13,32H88v6.05a7.06,7.06,0,0,0,6.91,7.2h.22ZM65,63H52.65a1,1,0,0,0-1,1V84.58L39.86,100H3.13L27.56,70.6A1,1,0,1,0,26,69.32l-25.79,31A1,1,0,0,0,1,102H40.35a1,1,0,0,0,.79-.39l12.3-16.08a1,1,0,0,0,.21-.61V65H64V84.92a1,1,0,0,0,2,0V64A1,1,0,0,0,65,63Zm41,16a1,1,0,0,0-1,1v42a1,1,0,0,0,2,0V80A1,1,0,0,0,106,79Z" fill="#565a5c"/></svg>
