<svg xmlns="http://www.w3.org/2000/svg" viewBox="0 0 118 125"><path d="M60.31,84s-2,11,10.55,11S97,99.5,97,104.5,89.46,125,47.24,125,0,107.5,0,103.5s4.52-7,21.61-7S36.69,84,36.69,84Z" fill="#ffb402"/><path d="M50,81a1,1,0,0,1-1,1C22.42,82,21,48.37,21,48A1,1,0,0,1,23,48a51.06,51.06,0,0,0,3.72,16.19C31.21,74.67,38.71,80,49,80A1,1,0,0,1,50,81ZM46.78,61.84a8.48,8.48,0,0,0,1.68.16,6.65,6.65,0,0,0,4.16-1.29,1,1,0,0,0-1.25-1.56A5,5,0,0,1,48,60V37a1,1,0,0,0-2,0V60.86A1,1,0,0,0,46.78,61.84Zm27.85.58a13.51,13.51,0,0,1-4.19,8.28,34.82,34.82,0,0,1-5,3.87C62,76.8,60,78.15,60,84a1,1,0,0,1-2,0c0-6.92,2.78-8.76,6.29-11.1a33.12,33.12,0,0,0,4.77-3.65,11.61,11.61,0,0,0,3.55-6.9A11.7,11.7,0,0,1,67.84,61a4.11,4.11,0,0,1-2.36-3.42c0-1.63,1.44-3.27,4.19-3.27a4.76,4.76,0,0,1,4.42,3.34,9,9,0,0,1,.59,2.73,5.13,5.13,0,0,0,4.26-1.84c1.75-2.4.91-6.78.44-8.27a1,1,0,0,1,1.91-.6c.08.26,2,6.36-.74,10.06C79.29,61.47,77.3,62.37,74.63,62.42Zm-2-2.07a6.82,6.82,0,0,0-.44-1.92,2.91,2.91,0,0,0-2.56-2.08c-1.27,0-2.19.54-2.19,1.27,0,.56.51,1.19,1.36,1.68A9.39,9.39,0,0,0,72.66,60.35ZM34.5,52.86a1,1,0,0,0,1.37-.36C36.14,52,37,51,37.64,51h0c.44,0,1,.53,1.46,1.47a1,1,0,0,0,1.77-.94C40,49.88,38.93,49,37.69,49c-2-.07-3.41,2.24-3.56,2.5A1,1,0,0,0,34.5,52.86Zm21,0a1,1,0,0,0,1.37-.36C57.14,52,58,51,58.64,51h0c.44,0,1,.53,1.46,1.47a1,1,0,0,0,1.77-.94C61,49.88,59.93,49,58.69,49c-2.05-.07-3.41,2.24-3.56,2.5A1,1,0,0,0,55.5,52.86Zm1.95,13.31c-9.37,6.3-19.81,0-19.92,0a1,1,0,0,0-1,1.7A24.09,24.09,0,0,0,48.07,71a18.47,18.47,0,0,0,10.49-3.19,1,1,0,0,0-1.12-1.66ZM53,72H47a1,1,0,0,0,0,2h6a1,1,0,0,0,0-2Zm65,11.5A22.5,22.5,0,1,1,95.5,61,22.53,22.53,0,0,1,118,83.5Zm-2,0A20.5,20.5,0,1,0,95.5,104,20.52,20.52,0,0,0,116,83.5Zm-9.47-11.35a1,1,0,0,0-1.38.32L93.35,91.32a1.45,1.45,0,0,1-1.14.67A1.46,1.46,0,0,1,91,91.48l-4.21-5a1,1,0,0,0-1.53,1.29l4.21,5A3.43,3.43,0,0,0,92.09,94h.25A3.43,3.43,0,0,0,95,92.38l11.81-18.85A1,1,0,0,0,106.53,72.15Z" fill="#565a5c"/><path d="M85,30.5C85,37,76.5,53,73,53s-4.5-2-3-7c0,0-8-1.78-8.91-13.31C46.59,48,10.46,44.7,10.46,44.7l5.92-5.4S8,39.79,8,33.9s7.39-4.42,7.39-4.42C15.39,16.7,26.24,0,42.51,0S67,11.3,67,17.31c0,.33,0,.66,0,1A13.29,13.29,0,0,1,73,17C80,17,85,24,85,30.5Z" fill="#00d1c1"/></svg>
